<?xml version="1.0" encoding="utf-8" standalone="no"?>
<!DOCTYPE svg PUBLIC "-//W3C//DTD SVG 1.1//EN"
  "http://www.w3.org/Graphics/SVG/1.1/DTD/svg11.dtd">
<!-- Created with matplotlib (http://matplotlib.org/) -->
<svg height="482.4pt" version="1.1" viewBox="0 0 979.2 482.4" width="979.2pt" xmlns="http://www.w3.org/2000/svg" xmlns:xlink="http://www.w3.org/1999/xlink">
 <defs>
  <style type="text/css">
*{stroke-linecap:butt;stroke-linejoin:round;}
  </style>
 </defs>
 <g id="figure_1">
  <g id="patch_1">
   <path d="M 0 482.4 
L 979.2 482.4 
L 979.2 0 
L 0 0 
z
" style="fill:#ffffff;"/>
  </g>
  <g id="axes_1">
   <g id="patch_2">
    <path d="M 122.4 429.336 
L 881.28 429.336 
L 881.28 57.888 
L 122.4 57.888 
z
" style="fill:#ffffff;"/>
   </g>
   <g id="matplotlib.axis_1">
    <g id="xtick_1">
     <g id="line2d_1">
      <defs>
       <path d="M 0 0 
L 0 3.5 
" id="mc48081a3de" style="stroke:#000000;stroke-width:0.8;"/>
      </defs>
      <g>
       <use style="stroke:#000000;stroke-width:0.8;" x="156.894545" xlink:href="#mc48081a3de" y="429.336"/>
      </g>
     </g>
     <g id="text_1">
      <!-- 0 -->
      <defs>
       <path d="M 31.78125 66.40625 
Q 24.171875 66.40625 20.328125 58.90625 
Q 16.5 51.421875 16.5 36.375 
Q 16.5 21.390625 20.328125 13.890625 
Q 24.171875 6.390625 31.78125 6.390625 
Q 39.453125 6.390625 43.28125 13.890625 
Q 47.125 21.390625 47.125 36.375 
Q 47.125 51.421875 43.28125 58.90625 
Q 39.453125 66.40625 31.78125 66.40625 
z
M 31.78125 74.21875 
Q 44.046875 74.21875 50.515625 64.515625 
Q 56.984375 54.828125 56.984375 36.375 
Q 56.984375 17.96875 50.515625 8.265625 
Q 44.046875 -1.421875 31.78125 -1.421875 
Q 19.53125 -1.421875 13.0625 8.265625 
Q 6.59375 17.96875 6.59375 36.375 
Q 6.59375 54.828125 13.0625 64.515625 
Q 19.53125 74.21875 31.78125 74.21875 
z
" id="DejaVuSans-30"/>
      </defs>
      <g transform="translate(153.713295 443.934438)scale(0.1 -0.1)">
       <use xlink:href="#DejaVuSans-30"/>
      </g>
     </g>
    </g>
    <g id="xtick_2">
     <g id="line2d_2">
      <g>
       <use style="stroke:#000000;stroke-width:0.8;" x="273.430172" xlink:href="#mc48081a3de" y="429.336"/>
      </g>
     </g>
     <g id="text_2">
      <!-- 200 -->
      <defs>
       <path d="M 19.1875 8.296875 
L 53.609375 8.296875 
L 53.609375 0 
L 7.328125 0 
L 7.328125 8.296875 
Q 12.9375 14.109375 22.625 23.890625 
Q 32.328125 33.6875 34.8125 36.53125 
Q 39.546875 41.84375 41.421875 45.53125 
Q 43.3125 49.21875 43.3125 52.78125 
Q 43.3125 58.59375 39.234375 62.25 
Q 35.15625 65.921875 28.609375 65.921875 
Q 23.96875 65.921875 18.8125 64.3125 
Q 13.671875 62.703125 7.8125 59.421875 
L 7.8125 69.390625 
Q 13.765625 71.78125 18.9375 73 
Q 24.125 74.21875 28.421875 74.21875 
Q 39.75 74.21875 46.484375 68.546875 
Q 53.21875 62.890625 53.21875 53.421875 
Q 53.21875 48.921875 51.53125 44.890625 
Q 49.859375 40.875 45.40625 35.40625 
Q 44.1875 33.984375 37.640625 27.21875 
Q 31.109375 20.453125 19.1875 8.296875 
z
" id="DejaVuSans-32"/>
      </defs>
      <g transform="translate(263.886422 443.934438)scale(0.1 -0.1)">
       <use xlink:href="#DejaVuSans-32"/>
       <use x="63.623047" xlink:href="#DejaVuSans-30"/>
       <use x="127.246094" xlink:href="#DejaVuSans-30"/>
      </g>
     </g>
    </g>
    <g id="xtick_3">
     <g id="line2d_3">
      <g>
       <use style="stroke:#000000;stroke-width:0.8;" x="389.965799" xlink:href="#mc48081a3de" y="429.336"/>
      </g>
     </g>
     <g id="text_3">
      <!-- 400 -->
      <defs>
       <path d="M 37.796875 64.3125 
L 12.890625 25.390625 
L 37.796875 25.390625 
z
M 35.203125 72.90625 
L 47.609375 72.90625 
L 47.609375 25.390625 
L 58.015625 25.390625 
L 58.015625 17.1875 
L 47.609375 17.1875 
L 47.609375 0 
L 37.796875 0 
L 37.796875 17.1875 
L 4.890625 17.1875 
L 4.890625 26.703125 
z
" id="DejaVuSans-34"/>
      </defs>
      <g transform="translate(380.422049 443.934438)scale(0.1 -0.1)">
       <use xlink:href="#DejaVuSans-34"/>
       <use x="63.623047" xlink:href="#DejaVuSans-30"/>
       <use x="127.246094" xlink:href="#DejaVuSans-30"/>
      </g>
     </g>
    </g>
    <g id="xtick_4">
     <g id="line2d_4">
      <g>
       <use style="stroke:#000000;stroke-width:0.8;" x="506.501425" xlink:href="#mc48081a3de" y="429.336"/>
      </g>
     </g>
     <g id="text_4">
      <!-- 600 -->
      <defs>
       <path d="M 33.015625 40.375 
Q 26.375 40.375 22.484375 35.828125 
Q 18.609375 31.296875 18.609375 23.390625 
Q 18.609375 15.53125 22.484375 10.953125 
Q 26.375 6.390625 33.015625 6.390625 
Q 39.65625 6.390625 43.53125 10.953125 
Q 47.40625 15.53125 47.40625 23.390625 
Q 47.40625 31.296875 43.53125 35.828125 
Q 39.65625 40.375 33.015625 40.375 
z
M 52.59375 71.296875 
L 52.59375 62.3125 
Q 48.875 64.0625 45.09375 64.984375 
Q 41.3125 65.921875 37.59375 65.921875 
Q 27.828125 65.921875 22.671875 59.328125 
Q 17.53125 52.734375 16.796875 39.40625 
Q 19.671875 43.65625 24.015625 45.921875 
Q 28.375 48.1875 33.59375 48.1875 
Q 44.578125 48.1875 50.953125 41.515625 
Q 57.328125 34.859375 57.328125 23.390625 
Q 57.328125 12.15625 50.6875 5.359375 
Q 44.046875 -1.421875 33.015625 -1.421875 
Q 20.359375 -1.421875 13.671875 8.265625 
Q 6.984375 17.96875 6.984375 36.375 
Q 6.984375 53.65625 15.1875 63.9375 
Q 23.390625 74.21875 37.203125 74.21875 
Q 40.921875 74.21875 44.703125 73.484375 
Q 48.484375 72.75 52.59375 71.296875 
z
" id="DejaVuSans-36"/>
      </defs>
      <g transform="translate(496.957675 443.934438)scale(0.1 -0.1)">
       <use xlink:href="#DejaVuSans-36"/>
       <use x="63.623047" xlink:href="#DejaVuSans-30"/>
       <use x="127.246094" xlink:href="#DejaVuSans-30"/>
      </g>
     </g>
    </g>
    <g id="xtick_5">
     <g id="line2d_5">
      <g>
       <use style="stroke:#000000;stroke-width:0.8;" x="623.037052" xlink:href="#mc48081a3de" y="429.336"/>
      </g>
     </g>
     <g id="text_5">
      <!-- 800 -->
      <defs>
       <path d="M 31.78125 34.625 
Q 24.75 34.625 20.71875 30.859375 
Q 16.703125 27.09375 16.703125 20.515625 
Q 16.703125 13.921875 20.71875 10.15625 
Q 24.75 6.390625 31.78125 6.390625 
Q 38.8125 6.390625 42.859375 10.171875 
Q 46.921875 13.96875 46.921875 20.515625 
Q 46.921875 27.09375 42.890625 30.859375 
Q 38.875 34.625 31.78125 34.625 
z
M 21.921875 38.8125 
Q 15.578125 40.375 12.03125 44.71875 
Q 8.5 49.078125 8.5 55.328125 
Q 8.5 64.0625 14.71875 69.140625 
Q 20.953125 74.21875 31.78125 74.21875 
Q 42.671875 74.21875 48.875 69.140625 
Q 55.078125 64.0625 55.078125 55.328125 
Q 55.078125 49.078125 51.53125 44.71875 
Q 48 40.375 41.703125 38.8125 
Q 48.828125 37.15625 52.796875 32.3125 
Q 56.78125 27.484375 56.78125 20.515625 
Q 56.78125 9.90625 50.3125 4.234375 
Q 43.84375 -1.421875 31.78125 -1.421875 
Q 19.734375 -1.421875 13.25 4.234375 
Q 6.78125 9.90625 6.78125 20.515625 
Q 6.78125 27.484375 10.78125 32.3125 
Q 14.796875 37.15625 21.921875 38.8125 
z
M 18.3125 54.390625 
Q 18.3125 48.734375 21.84375 45.5625 
Q 25.390625 42.390625 31.78125 42.390625 
Q 38.140625 42.390625 41.71875 45.5625 
Q 45.3125 48.734375 45.3125 54.390625 
Q 45.3125 60.0625 41.71875 63.234375 
Q 38.140625 66.40625 31.78125 66.40625 
Q 25.390625 66.40625 21.84375 63.234375 
Q 18.3125 60.0625 18.3125 54.390625 
z
" id="DejaVuSans-38"/>
      </defs>
      <g transform="translate(613.493302 443.934438)scale(0.1 -0.1)">
       <use xlink:href="#DejaVuSans-38"/>
       <use x="63.623047" xlink:href="#DejaVuSans-30"/>
       <use x="127.246094" xlink:href="#DejaVuSans-30"/>
      </g>
     </g>
    </g>
    <g id="xtick_6">
     <g id="line2d_6">
      <g>
       <use style="stroke:#000000;stroke-width:0.8;" x="739.572678" xlink:href="#mc48081a3de" y="429.336"/>
      </g>
     </g>
     <g id="text_6">
      <!-- 1000 -->
      <defs>
       <path d="M 12.40625 8.296875 
L 28.515625 8.296875 
L 28.515625 63.921875 
L 10.984375 60.40625 
L 10.984375 69.390625 
L 28.421875 72.90625 
L 38.28125 72.90625 
L 38.28125 8.296875 
L 54.390625 8.296875 
L 54.390625 0 
L 12.40625 0 
z
" id="DejaVuSans-31"/>
      </defs>
      <g transform="translate(726.847678 443.934438)scale(0.1 -0.1)">
       <use xlink:href="#DejaVuSans-31"/>
       <use x="63.623047" xlink:href="#DejaVuSans-30"/>
       <use x="127.246094" xlink:href="#DejaVuSans-30"/>
       <use x="190.869141" xlink:href="#DejaVuSans-30"/>
      </g>
     </g>
    </g>
    <g id="xtick_7">
     <g id="line2d_7">
      <g>
       <use style="stroke:#000000;stroke-width:0.8;" x="856.108305" xlink:href="#mc48081a3de" y="429.336"/>
      </g>
     </g>
     <g id="text_7">
      <!-- 1200 -->
      <g transform="translate(843.383305 443.934438)scale(0.1 -0.1)">
       <use xlink:href="#DejaVuSans-31"/>
       <use x="63.623047" xlink:href="#DejaVuSans-32"/>
       <use x="127.246094" xlink:href="#DejaVuSans-30"/>
       <use x="190.869141" xlink:href="#DejaVuSans-30"/>
      </g>
     </g>
    </g>
   </g>
   <g id="matplotlib.axis_2">
    <g id="ytick_1">
     <g id="line2d_8">
      <defs>
       <path d="M 0 0 
L -3.5 0 
" id="m733d9c6515" style="stroke:#000000;stroke-width:0.8;"/>
      </defs>
      <g>
       <use style="stroke:#000000;stroke-width:0.8;" x="122.4" xlink:href="#m733d9c6515" y="412.452"/>
      </g>
     </g>
     <g id="text_8">
      <!-- 0 -->
      <g transform="translate(109.0375 416.251219)scale(0.1 -0.1)">
       <use xlink:href="#DejaVuSans-30"/>
      </g>
     </g>
    </g>
    <g id="ytick_2">
     <g id="line2d_9">
      <g>
       <use style="stroke:#000000;stroke-width:0.8;" x="122.4" xlink:href="#m733d9c6515" y="334.824414"/>
      </g>
     </g>
     <g id="text_9">
      <!-- 20 -->
      <g transform="translate(102.675 338.623633)scale(0.1 -0.1)">
       <use xlink:href="#DejaVuSans-32"/>
       <use x="63.623047" xlink:href="#DejaVuSans-30"/>
      </g>
     </g>
    </g>
    <g id="ytick_3">
     <g id="line2d_10">
      <g>
       <use style="stroke:#000000;stroke-width:0.8;" x="122.4" xlink:href="#m733d9c6515" y="257.196828"/>
      </g>
     </g>
     <g id="text_10">
      <!-- 40 -->
      <g transform="translate(102.675 260.996046)scale(0.1 -0.1)">
       <use xlink:href="#DejaVuSans-34"/>
       <use x="63.623047" xlink:href="#DejaVuSans-30"/>
      </g>
     </g>
    </g>
    <g id="ytick_4">
     <g id="line2d_11">
      <g>
       <use style="stroke:#000000;stroke-width:0.8;" x="122.4" xlink:href="#m733d9c6515" y="179.569241"/>
      </g>
     </g>
     <g id="text_11">
      <!-- 60 -->
      <g transform="translate(102.675 183.36846)scale(0.1 -0.1)">
       <use xlink:href="#DejaVuSans-36"/>
       <use x="63.623047" xlink:href="#DejaVuSans-30"/>
      </g>
     </g>
    </g>
    <g id="ytick_5">
     <g id="line2d_12">
      <g>
       <use style="stroke:#000000;stroke-width:0.8;" x="122.4" xlink:href="#m733d9c6515" y="101.941655"/>
      </g>
     </g>
     <g id="text_12">
      <!-- 80 -->
      <g transform="translate(102.675 105.740874)scale(0.1 -0.1)">
       <use xlink:href="#DejaVuSans-38"/>
       <use x="63.623047" xlink:href="#DejaVuSans-30"/>
      </g>
     </g>
    </g>
   </g>
   <g id="line2d_13">
    <path clip-path="url(#p63c3b7ab7a)" d="M 156.894545 412.452 
L 158.64258 412.452 
L 159.225258 408.570621 
L 159.807936 412.452 
L 160.973292 404.689241 
L 161.555971 377.519586 
L 162.138649 400.807862 
L 162.721327 389.163724 
L 163.304005 381.400966 
L 163.886683 385.282343 
L 164.469361 381.400966 
L 165.052039 396.926483 
L 165.634717 393.045103 
L 166.217396 396.926483 
L 166.800074 385.282343 
L 167.382752 400.807862 
L 167.96543 361.994069 
L 168.548108 400.807862 
L 169.130786 408.570621 
L 169.713464 408.570621 
L 170.296143 400.807862 
L 171.461499 393.045103 
L 172.044177 396.926483 
L 172.626855 412.452 
L 173.209533 408.570621 
L 173.792211 412.452 
L 174.374889 412.452 
L 174.957568 404.689241 
L 175.540246 412.452 
L 176.705602 412.452 
L 177.28828 408.570621 
L 177.870958 412.452 
L 178.453636 408.570621 
L 179.036314 396.926483 
L 180.201671 404.689241 
L 180.784349 412.452 
L 181.367027 408.570621 
L 181.949705 389.163724 
L 182.532383 412.452 
L 183.115061 400.807862 
L 183.69774 393.045103 
L 184.280418 381.400966 
L 184.863096 404.689241 
L 185.445774 404.689241 
L 186.028452 412.452 
L 187.193808 412.452 
L 187.776486 408.570621 
L 188.359165 412.452 
L 190.107199 412.452 
L 190.689877 385.282343 
L 191.272555 393.045103 
L 191.855233 404.689241 
L 192.437912 393.045103 
L 193.02059 404.689241 
L 193.603268 412.452 
L 194.185946 404.689241 
L 194.768624 377.519586 
L 195.351302 389.163724 
L 195.93398 412.452 
L 196.516658 408.570621 
L 197.099337 389.163724 
L 197.682015 400.807862 
L 198.264693 400.807862 
L 198.847371 389.163724 
L 199.430049 412.452 
L 200.012727 412.452 
L 200.595405 408.570621 
L 201.178084 408.570621 
L 201.760762 412.452 
L 204.674152 412.452 
L 205.25683 400.807862 
L 205.839509 412.452 
L 206.422187 408.570621 
L 207.004865 412.452 
L 207.587543 412.452 
L 208.170221 404.689241 
L 208.752899 412.452 
L 211.083612 412.452 
L 211.66629 385.282343 
L 212.248968 365.875448 
L 212.831646 377.519586 
L 213.414324 400.807862 
L 213.997002 412.452 
L 214.579681 404.689241 
L 215.162359 404.689241 
L 215.745037 381.400966 
L 216.327715 412.452 
L 216.910393 400.807862 
L 217.493071 373.638207 
L 218.075749 404.689241 
L 218.658428 346.468552 
L 219.241106 365.875448 
L 219.823784 393.045103 
L 220.406462 396.926483 
L 220.98914 385.282343 
L 221.571818 412.452 
L 222.737174 412.452 
L 223.319853 408.570621 
L 223.902531 412.452 
L 225.067887 412.452 
L 225.650565 404.689241 
L 226.233243 408.570621 
L 226.815921 408.570621 
L 227.3986 412.452 
L 227.981278 412.452 
L 228.563956 404.689241 
L 229.146634 412.452 
L 229.729312 396.926483 
L 230.31199 389.163724 
L 230.894668 396.926483 
L 231.477346 412.452 
L 232.642703 412.452 
L 233.225381 408.570621 
L 233.808059 408.570621 
L 234.390737 404.689241 
L 235.556093 412.452 
L 236.138771 412.452 
L 236.72145 408.570621 
L 237.304128 412.452 
L 239.63484 412.452 
L 240.217518 408.570621 
L 241.382875 408.570621 
L 241.965553 412.452 
L 243.130909 412.452 
L 243.713587 404.689241 
L 244.296265 400.807862 
L 244.878943 412.452 
L 245.461622 400.807862 
L 246.0443 408.570621 
L 246.626978 412.452 
L 248.95769 412.452 
L 249.540369 393.045103 
L 250.123047 377.519586 
L 250.705725 400.807862 
L 251.288403 408.570621 
L 251.871081 408.570621 
L 252.453759 412.452 
L 253.036437 408.570621 
L 253.619115 396.926483 
L 254.201794 400.807862 
L 255.36715 393.045103 
L 255.949828 400.807862 
L 256.532506 393.045103 
L 257.115184 408.570621 
L 257.697862 412.452 
L 259.445897 412.452 
L 260.028575 396.926483 
L 260.611253 412.452 
L 261.193931 412.452 
L 261.776609 373.638207 
L 262.359287 385.282343 
L 262.941966 400.807862 
L 263.524644 400.807862 
L 264.107322 393.045103 
L 264.69 373.638207 
L 265.272678 396.926483 
L 265.855356 408.570621 
L 266.438034 412.452 
L 267.020713 396.926483 
L 267.603391 408.570621 
L 268.186069 404.689241 
L 269.351425 412.452 
L 269.934103 412.452 
L 270.516781 408.570621 
L 271.099459 412.452 
L 271.682138 412.452 
L 272.264816 408.570621 
L 272.847494 408.570621 
L 273.430172 412.452 
L 274.01285 408.570621 
L 274.595528 400.807862 
L 275.178206 412.452 
L 275.760885 412.452 
L 276.926241 404.689241 
L 277.508919 404.689241 
L 278.091597 393.045103 
L 278.674275 404.689241 
L 279.256953 412.452 
L 280.42231 412.452 
L 281.004988 408.570621 
L 281.587666 408.570621 
L 282.170344 412.452 
L 284.501057 412.452 
L 285.083735 408.570621 
L 285.666413 412.452 
L 287.997125 412.452 
L 288.579803 404.689241 
L 289.162482 412.452 
L 290.327838 412.452 
L 290.910516 408.570621 
L 291.493194 412.452 
L 294.406585 412.452 
L 294.989263 408.570621 
L 295.571941 412.452 
L 296.154619 408.570621 
L 296.737297 400.807862 
L 297.319975 408.570621 
L 297.902654 408.570621 
L 298.485332 412.452 
L 299.06801 412.452 
L 299.650688 404.689241 
L 300.233366 412.452 
L 300.816044 404.689241 
L 301.9814 412.452 
L 302.564079 408.570621 
L 303.146757 412.452 
L 303.729435 408.570621 
L 304.312113 373.638207 
L 304.894791 393.045103 
L 305.477469 385.282343 
L 306.060147 408.570621 
L 306.642826 412.452 
L 307.225504 400.807862 
L 307.808182 412.452 
L 308.39086 408.570621 
L 308.973538 412.452 
L 311.304251 412.452 
L 311.886929 408.570621 
L 312.469607 412.452 
L 313.052285 412.452 
L 313.634963 400.807862 
L 314.217641 412.452 
L 314.800319 408.570621 
L 315.382998 412.452 
L 316.548354 412.452 
L 317.131032 408.570621 
L 317.71371 408.570621 
L 318.296388 412.452 
L 327.619238 412.452 
L 328.201916 408.570621 
L 328.784595 412.452 
L 334.028698 412.452 
L 334.611376 408.570621 
L 335.194054 412.452 
L 335.776732 412.452 
L 336.35941 369.756828 
L 336.942088 346.468552 
L 337.524767 377.519586 
L 338.107445 358.112686 
L 338.690123 412.452 
L 339.272801 385.282343 
L 339.855479 404.689241 
L 340.438157 396.926483 
L 341.020835 296.010621 
L 341.603514 171.806483 
L 342.186192 171.806483 
L 342.76887 105.823034 
L 343.351548 191.213379 
L 343.934226 98.060276 
L 344.516904 214.501655 
L 345.099582 152.399586 
L 345.68226 74.772 
L 346.264939 117.467172 
L 346.847617 171.806483 
L 347.430295 144.636828 
L 348.012973 140.755448 
L 348.595651 156.280966 
L 349.178329 132.99269 
L 349.761007 210.620276 
L 350.343686 412.452 
L 350.926364 136.874069 
L 351.509042 160.162345 
L 352.09172 253.315448 
L 352.674398 284.366483 
L 353.257076 253.315448 
L 353.839754 288.247862 
L 354.422432 210.620276 
L 355.005111 257.196828 
L 355.587789 241.67131 
L 356.170467 160.162345 
L 356.753145 183.450621 
L 357.335823 237.789931 
L 357.918501 237.789931 
L 358.501179 210.620276 
L 359.083857 276.603724 
L 359.666536 268.840966 
L 360.249214 257.196828 
L 360.831892 319.298897 
L 361.41457 280.485103 
L 361.997248 257.196828 
L 362.579926 210.620276 
L 363.162604 198.976138 
L 364.327961 334.824414 
L 364.910639 315.417517 
L 365.493317 361.994069 
L 366.075995 334.824414 
L 366.658673 261.078207 
L 367.241351 296.010621 
L 367.824029 346.468552 
L 368.406708 369.756828 
L 368.989386 330.943034 
L 369.572064 257.196828 
L 370.154742 334.824414 
L 370.73742 354.23131 
L 371.320098 377.519586 
L 371.902776 354.23131 
L 372.485455 369.756828 
L 373.068133 354.23131 
L 373.650811 342.587172 
L 374.233489 299.891993 
L 374.816167 330.943034 
L 375.398845 354.23131 
L 375.981523 307.654766 
L 376.564201 315.417517 
L 377.14688 327.061655 
L 377.729558 330.943034 
L 378.312236 288.247862 
L 378.894914 327.061655 
L 380.06027 249.434069 
L 380.642948 288.247862 
L 381.225627 296.010621 
L 381.808305 218.383034 
L 382.390983 218.383034 
L 382.973661 226.145793 
L 383.556339 272.722345 
L 384.139017 272.722345 
L 384.721695 346.468552 
L 385.304373 319.298897 
L 385.887052 307.654766 
L 386.46973 288.247862 
L 387.052408 342.587172 
L 387.635086 280.485103 
L 388.217764 241.67131 
L 388.800442 272.722345 
L 389.38312 226.145793 
L 390.548477 354.23131 
L 391.131155 292.129241 
L 391.713833 354.23131 
L 392.296511 319.298897 
L 392.879189 354.23131 
L 393.461867 299.891993 
L 394.044545 292.129241 
L 394.627224 365.875448 
L 395.209902 350.349931 
L 395.79258 361.994069 
L 396.375258 307.654766 
L 396.957936 284.366483 
L 397.540614 327.061655 
L 398.123292 319.298897 
L 398.705971 303.773372 
L 399.288649 311.536138 
L 399.871327 381.400966 
L 400.454005 292.129241 
L 401.036683 334.824414 
L 401.619361 342.587172 
L 402.202039 361.994069 
L 402.784717 330.943034 
L 403.367396 276.603724 
L 403.950074 296.010621 
L 404.532752 299.891993 
L 405.11543 311.536138 
L 405.698108 233.908552 
L 406.280786 288.247862 
L 406.863464 253.315448 
L 407.446143 319.298897 
L 408.028821 334.824414 
L 408.611499 323.180276 
L 409.194177 358.112686 
L 410.359533 350.349931 
L 410.942211 389.163724 
L 411.524889 311.536138 
L 412.107568 358.112686 
L 413.272924 396.926483 
L 414.43828 358.112686 
L 415.020958 284.366483 
L 415.603636 257.196828 
L 416.186314 187.331985 
L 416.768993 253.315448 
L 417.351671 253.315448 
L 417.934349 346.468552 
L 418.517027 296.010621 
L 419.099705 272.722345 
L 419.682383 210.620276 
L 420.265061 307.654766 
L 420.84774 311.536138 
L 421.430418 319.298897 
L 422.013096 330.943034 
L 422.595774 299.891993 
L 423.178452 296.010621 
L 423.76113 342.587172 
L 424.343808 276.603724 
L 424.926486 338.705793 
L 425.509165 315.417517 
L 426.091843 307.654766 
L 426.674521 230.027187 
L 427.257199 369.756828 
L 427.839877 342.587172 
L 428.422555 334.824414 
L 429.005233 307.654766 
L 429.587912 365.875448 
L 430.17059 342.587172 
L 430.753268 350.349931 
L 431.918624 334.824414 
L 432.501302 373.638207 
L 433.08398 404.689241 
L 433.666658 389.163724 
L 434.249337 385.282343 
L 434.832015 393.045103 
L 435.414693 377.519586 
L 435.997371 381.400966 
L 436.580049 342.587172 
L 437.162727 330.943034 
L 437.745405 381.400966 
L 438.328084 361.994069 
L 438.910762 350.349931 
L 439.49344 346.468552 
L 440.076118 361.994069 
L 440.658796 323.180276 
L 441.241474 319.298897 
L 441.824152 358.112686 
L 442.40683 323.180276 
L 442.989509 381.400966 
L 443.572187 389.163724 
L 444.154865 350.349931 
L 444.737543 354.23131 
L 445.320221 365.875448 
L 445.902899 327.061655 
L 446.485577 327.061655 
L 447.068256 369.756828 
L 447.650934 381.400966 
L 448.233612 369.756828 
L 448.81629 361.994069 
L 449.398968 334.824414 
L 449.981646 377.519586 
L 450.564324 381.400966 
L 451.147002 299.891993 
L 451.729681 350.349931 
L 452.312359 350.349931 
L 452.895037 338.705793 
L 453.477715 358.112686 
L 454.060393 296.010621 
L 454.643071 361.994069 
L 455.808428 303.773372 
L 456.391106 330.943034 
L 456.973784 296.010621 
L 457.556462 296.010621 
L 458.13914 237.789931 
L 458.721818 311.536138 
L 459.304496 311.536138 
L 460.469853 280.485103 
L 461.052531 257.196828 
L 461.635209 319.298897 
L 462.217887 268.840966 
L 462.800565 195.094744 
L 463.965921 315.417517 
L 464.5486 230.027187 
L 465.131278 334.824414 
L 465.713956 249.434069 
L 466.296634 315.417517 
L 466.879312 354.23131 
L 467.46199 330.943034 
L 468.044668 346.468552 
L 468.627346 303.773372 
L 469.210025 389.163724 
L 469.792703 373.638207 
L 470.375381 381.400966 
L 470.958059 358.112686 
L 471.540737 346.468552 
L 472.123415 330.943034 
L 472.706093 389.163724 
L 473.288771 396.926483 
L 473.87145 408.570621 
L 474.454128 346.468552 
L 475.036806 354.23131 
L 475.619484 369.756828 
L 476.202162 396.926483 
L 477.367518 373.638207 
L 477.950197 354.23131 
L 478.532875 369.756828 
L 479.115553 280.485103 
L 479.698231 303.773372 
L 480.280909 365.875448 
L 480.863587 334.824414 
L 481.446265 264.959586 
L 482.028943 307.654766 
L 482.611622 311.536138 
L 483.1943 292.129241 
L 483.776978 323.180276 
L 484.359656 299.891993 
L 484.942334 342.587172 
L 485.525012 358.112686 
L 486.10769 361.994069 
L 486.690369 396.926483 
L 487.855725 330.943034 
L 488.438403 338.705793 
L 489.021081 361.994069 
L 489.603759 361.994069 
L 490.186437 319.298897 
L 490.769115 233.908552 
L 491.351794 299.891993 
L 491.934472 303.773372 
L 492.51715 214.501655 
L 493.099828 296.010621 
L 493.682506 323.180276 
L 494.265184 319.298897 
L 494.847862 412.452 
L 496.013219 412.452 
L 496.595897 408.570621 
L 497.178575 412.452 
L 498.343931 412.452 
L 499.509287 396.926483 
L 500.091966 408.570621 
L 500.674644 408.570621 
L 501.84 400.807862 
L 503.005356 400.807862 
L 503.588034 404.689241 
L 504.753391 404.689241 
L 505.336069 319.298897 
L 505.918747 253.315448 
L 506.501425 257.196828 
L 507.084103 218.383034 
L 507.666781 381.400966 
L 508.249459 358.112686 
L 508.832138 373.638207 
L 509.414816 361.994069 
L 509.997494 354.23131 
L 510.580172 377.519586 
L 511.16285 373.638207 
L 511.745528 311.536138 
L 512.328206 292.129241 
L 512.910885 369.756828 
L 513.493563 385.282343 
L 514.076241 373.638207 
L 514.658919 358.112686 
L 515.241597 358.112686 
L 515.824275 393.045103 
L 516.406953 365.875448 
L 516.989631 369.756828 
L 518.154988 385.282343 
L 518.737666 404.689241 
L 519.320344 396.926483 
L 519.903022 385.282343 
L 520.4857 389.163724 
L 521.068378 412.452 
L 521.651057 393.045103 
L 522.233735 389.163724 
L 523.399091 396.926483 
L 523.981769 408.570621 
L 524.564447 400.807862 
L 525.147125 365.875448 
L 525.729803 358.112686 
L 526.312482 361.994069 
L 526.89516 381.400966 
L 527.477838 389.163724 
L 528.060516 393.045103 
L 528.643194 365.875448 
L 529.225872 373.638207 
L 529.80855 377.519586 
L 530.391229 377.519586 
L 530.973907 381.400966 
L 531.556585 373.638207 
L 532.139263 393.045103 
L 532.721941 365.875448 
L 533.304619 361.994069 
L 533.887297 354.23131 
L 534.469975 358.112686 
L 535.052654 315.417517 
L 535.635332 381.400966 
L 536.21801 373.638207 
L 536.800688 404.689241 
L 537.383366 389.163724 
L 537.966044 396.926483 
L 538.548722 400.807862 
L 539.1314 412.452 
L 539.714079 400.807862 
L 540.296757 408.570621 
L 540.879435 408.570621 
L 541.462113 396.926483 
L 542.044791 373.638207 
L 542.627469 342.587172 
L 543.210147 354.23131 
L 543.792826 361.994069 
L 544.375504 361.994069 
L 544.958182 408.570621 
L 545.54086 396.926483 
L 546.123538 404.689241 
L 546.706216 373.638207 
L 547.288894 381.400966 
L 547.871572 365.875448 
L 548.454251 381.400966 
L 549.036929 369.756828 
L 549.619607 369.756828 
L 550.202285 373.638207 
L 550.784963 385.282343 
L 551.367641 381.400966 
L 551.950319 385.282343 
L 553.115676 369.756828 
L 553.698354 385.282343 
L 554.281032 381.400966 
L 554.86371 369.756828 
L 555.446388 354.23131 
L 556.029066 377.519586 
L 556.611744 389.163724 
L 557.194423 361.994069 
L 557.777101 373.638207 
L 558.359779 396.926483 
L 558.942457 389.163724 
L 559.525135 408.570621 
L 560.107813 327.061655 
L 560.690491 288.247862 
L 561.27317 311.536138 
L 561.855848 241.67131 
L 562.438526 327.061655 
L 563.021204 350.349931 
L 563.603882 334.824414 
L 564.18656 338.705793 
L 564.769238 319.298897 
L 565.351916 323.180276 
L 565.934595 311.536138 
L 566.517273 296.010621 
L 567.099951 303.773372 
L 567.682629 334.824414 
L 568.265307 323.180276 
L 568.847985 288.247862 
L 570.013342 288.247862 
L 570.59602 226.145793 
L 571.178698 226.145793 
L 571.761376 350.349931 
L 572.344054 257.196828 
L 572.926732 284.366483 
L 573.50941 233.908552 
L 574.092088 288.247862 
L 574.674767 268.840966 
L 575.257445 315.417517 
L 575.840123 330.943034 
L 576.422801 292.129241 
L 577.005479 311.536138 
L 577.588157 315.417517 
L 578.170835 365.875448 
L 579.336192 350.349931 
L 579.91887 354.23131 
L 580.501548 381.400966 
L 581.666904 389.163724 
L 582.249582 385.282343 
L 582.83226 346.468552 
L 583.414939 381.400966 
L 583.997617 361.994069 
L 584.580295 358.112686 
L 585.162973 408.570621 
L 585.745651 369.756828 
L 586.328329 307.654766 
L 586.911007 358.112686 
L 587.493686 338.705793 
L 588.076364 303.773372 
L 588.659042 361.994069 
L 589.24172 373.638207 
L 589.824398 396.926483 
L 590.407076 358.112686 
L 590.989754 373.638207 
L 591.572432 381.400966 
L 592.155111 354.23131 
L 592.737789 350.349931 
L 593.320467 358.112686 
L 593.903145 358.112686 
L 594.485823 334.824414 
L 595.068501 334.824414 
L 595.651179 327.061655 
L 596.233857 327.061655 
L 596.816536 268.840966 
L 597.399214 323.180276 
L 597.981892 280.485103 
L 598.56457 330.943034 
L 599.147248 276.603724 
L 599.729926 303.773372 
L 600.312604 369.756828 
L 600.895283 280.485103 
L 601.477961 358.112686 
L 602.060639 361.994069 
L 602.643317 342.587172 
L 603.225995 350.349931 
L 603.808673 350.349931 
L 604.391351 338.705793 
L 604.974029 299.891993 
L 605.556708 210.620276 
L 606.139386 237.789931 
L 606.722064 276.603724 
L 607.304742 346.468552 
L 607.88742 311.536138 
L 608.470098 237.789931 
L 609.052776 292.129241 
L 609.635455 222.264399 
L 610.218133 132.99269 
L 610.800811 222.264399 
L 611.383489 268.840966 
L 611.966167 249.434069 
L 612.548845 311.536138 
L 613.131523 264.959586 
L 613.714201 292.129241 
L 614.29688 330.943034 
L 614.879558 350.349931 
L 615.462236 315.417517 
L 616.044914 323.180276 
L 616.627592 342.587172 
L 617.21027 358.112686 
L 617.792948 377.519586 
L 618.375627 385.282343 
L 618.958305 369.756828 
L 619.540983 350.349931 
L 620.123661 299.891993 
L 620.706339 315.417517 
L 621.289017 338.705793 
L 621.871695 342.587172 
L 622.454373 284.366483 
L 623.037052 323.180276 
L 623.61973 307.654766 
L 624.202408 354.23131 
L 625.367764 268.840966 
L 625.950442 342.587172 
L 626.53312 276.603724 
L 627.115799 268.840966 
L 627.698477 276.603724 
L 628.281155 288.247862 
L 628.863833 296.010621 
L 630.029189 354.23131 
L 630.611867 296.010621 
L 631.194545 307.654766 
L 631.777224 292.129241 
L 632.359902 346.468552 
L 632.94258 296.010621 
L 633.525258 350.349931 
L 634.107936 315.417517 
L 634.690614 319.298897 
L 635.273292 288.247862 
L 635.855971 206.738897 
L 636.438649 284.366483 
L 637.021327 303.773372 
L 637.604005 354.23131 
L 638.186683 303.773372 
L 638.769361 284.366483 
L 639.352039 296.010621 
L 639.934717 261.078207 
L 640.517396 272.722345 
L 641.100074 268.840966 
L 641.682752 257.196828 
L 642.26543 214.501655 
L 642.848108 280.485103 
L 643.430786 284.366483 
L 644.013464 226.145793 
L 644.596143 264.959586 
L 645.178821 280.485103 
L 645.761499 280.485103 
L 646.344177 249.434069 
L 646.926855 183.450621 
L 647.509533 202.857532 
L 648.092211 276.603724 
L 648.674889 292.129241 
L 649.257568 288.247862 
L 649.840246 276.603724 
L 651.005602 307.654766 
L 651.58828 303.773372 
L 652.170958 307.654766 
L 653.336314 276.603724 
L 653.918993 299.891993 
L 654.501671 311.536138 
L 655.084349 334.824414 
L 655.667027 334.824414 
L 656.249705 358.112686 
L 656.832383 342.587172 
L 657.415061 358.112686 
L 658.580418 315.417517 
L 659.163096 311.536138 
L 659.745774 296.010621 
L 660.328452 330.943034 
L 661.493808 288.247862 
L 662.076486 330.943034 
L 662.659165 319.298897 
L 663.241843 327.061655 
L 663.824521 276.603724 
L 664.407199 327.061655 
L 664.989877 307.654766 
L 665.572555 373.638207 
L 667.32059 241.67131 
L 667.903268 338.705793 
L 668.485946 334.824414 
L 669.068624 307.654766 
L 669.651302 303.773372 
L 670.23398 342.587172 
L 670.816658 330.943034 
L 671.399337 307.654766 
L 671.982015 350.349931 
L 672.564693 299.891993 
L 673.147371 354.23131 
L 673.730049 299.891993 
L 674.312727 292.129241 
L 674.895405 303.773372 
L 675.478084 288.247862 
L 676.060762 233.908552 
L 676.64344 276.603724 
L 677.226118 334.824414 
L 678.391474 319.298897 
L 678.974152 307.654766 
L 679.55683 346.468552 
L 680.139509 365.875448 
L 680.722187 342.587172 
L 681.887543 393.045103 
L 682.470221 393.045103 
L 683.052899 358.112686 
L 683.635577 400.807862 
L 684.218256 377.519586 
L 684.800934 400.807862 
L 685.383612 404.689241 
L 685.96629 361.994069 
L 686.548968 393.045103 
L 687.131646 365.875448 
L 687.714324 396.926483 
L 688.297002 381.400966 
L 688.879681 377.519586 
L 689.462359 393.045103 
L 690.045037 385.282343 
L 690.627715 369.756828 
L 691.210393 389.163724 
L 691.793071 393.045103 
L 692.375749 404.689241 
L 692.958428 404.689241 
L 693.541106 389.163724 
L 694.123784 393.045103 
L 694.706462 404.689241 
L 695.28914 412.452 
L 695.871818 408.570621 
L 696.454496 412.452 
L 697.037174 365.875448 
L 697.619853 369.756828 
L 698.202531 361.994069 
L 699.367887 404.689241 
L 699.950565 404.689241 
L 700.533243 361.994069 
L 701.115921 385.282343 
L 701.6986 377.519586 
L 702.281278 396.926483 
L 702.863956 381.400966 
L 703.446634 385.282343 
L 704.029312 361.994069 
L 704.61199 369.756828 
L 706.360025 299.891993 
L 706.942703 327.061655 
L 707.525381 338.705793 
L 708.108059 389.163724 
L 708.690737 385.282343 
L 709.273415 365.875448 
L 709.856093 354.23131 
L 710.438771 354.23131 
L 711.02145 404.689241 
L 711.604128 385.282343 
L 712.186806 385.282343 
L 712.769484 393.045103 
L 713.352162 389.163724 
L 713.93484 393.045103 
L 714.517518 404.689241 
L 715.100197 412.452 
L 715.682875 396.926483 
L 716.265553 389.163724 
L 716.848231 365.875448 
L 718.013587 412.452 
L 718.596265 408.570621 
L 719.178943 389.163724 
L 719.761622 389.163724 
L 720.3443 373.638207 
L 720.926978 400.807862 
L 721.509656 393.045103 
L 722.092334 389.163724 
L 722.675012 393.045103 
L 723.25769 408.570621 
L 723.840369 404.689241 
L 724.423047 396.926483 
L 725.005725 393.045103 
L 725.588403 377.519586 
L 726.171081 303.773372 
L 726.753759 358.112686 
L 727.336437 389.163724 
L 727.919115 299.891993 
L 728.501794 284.366483 
L 729.084472 276.603724 
L 729.66715 334.824414 
L 730.249828 354.23131 
L 730.832506 342.587172 
L 731.415184 327.061655 
L 731.997862 280.485103 
L 732.580541 292.129241 
L 733.163219 323.180276 
L 733.745897 369.756828 
L 734.328575 354.23131 
L 734.911253 226.145793 
L 735.493931 284.366483 
L 736.076609 272.722345 
L 736.659287 299.891993 
L 737.241966 315.417517 
L 737.824644 358.112686 
L 738.407322 338.705793 
L 738.99 373.638207 
L 739.572678 381.400966 
L 740.155356 350.349931 
L 741.320713 373.638207 
L 741.903391 373.638207 
L 742.486069 342.587172 
L 743.068747 350.349931 
L 743.651425 330.943034 
L 744.234103 350.349931 
L 744.816781 346.468552 
L 745.399459 377.519586 
L 745.982138 365.875448 
L 746.564816 400.807862 
L 747.147494 381.400966 
L 747.730172 346.468552 
L 748.31285 381.400966 
L 748.895528 327.061655 
L 749.478206 338.705793 
L 750.060885 307.654766 
L 750.643563 330.943034 
L 751.226241 330.943034 
L 751.808919 307.654766 
L 752.391597 350.349931 
L 752.974275 315.417517 
L 754.139631 365.875448 
L 754.72231 315.417517 
L 755.304988 330.943034 
L 755.887666 323.180276 
L 756.470344 358.112686 
L 757.053022 334.824414 
L 757.6357 369.756828 
L 758.801057 330.943034 
L 759.383735 350.349931 
L 759.966413 365.875448 
L 760.549091 346.468552 
L 761.131769 342.587172 
L 761.714447 354.23131 
L 762.297125 361.994069 
L 762.879803 393.045103 
L 763.462482 377.519586 
L 764.04516 342.587172 
L 764.627838 330.943034 
L 765.210516 377.519586 
L 765.793194 346.468552 
L 766.375872 365.875448 
L 766.95855 334.824414 
L 768.123907 389.163724 
L 768.706585 327.061655 
L 769.289263 330.943034 
L 769.871941 377.519586 
L 770.454619 377.519586 
L 771.037297 396.926483 
L 772.202654 396.926483 
L 772.785332 377.519586 
L 773.36801 361.994069 
L 773.950688 315.417517 
L 774.533366 288.247862 
L 775.116044 280.485103 
L 775.698722 346.468552 
L 776.2814 385.282343 
L 776.864079 381.400966 
L 777.446757 292.129241 
L 778.029435 330.943034 
L 778.612113 307.654766 
L 779.194791 346.468552 
L 779.777469 354.23131 
L 780.360147 323.180276 
L 780.942826 311.536138 
L 781.525504 319.298897 
L 782.108182 307.654766 
L 782.69086 315.417517 
L 783.273538 272.722345 
L 783.856216 350.349931 
L 784.438894 334.824414 
L 785.021572 373.638207 
L 785.604251 319.298897 
L 786.186929 334.824414 
L 786.769607 354.23131 
L 787.352285 299.891993 
L 787.934963 346.468552 
L 789.100319 323.180276 
L 789.682998 389.163724 
L 790.265676 338.705793 
L 790.848354 373.638207 
L 791.431032 373.638207 
L 792.01371 350.349931 
L 792.596388 292.129241 
L 793.179066 354.23131 
L 793.761744 350.349931 
L 794.344423 361.994069 
L 794.927101 311.536138 
L 795.509779 361.994069 
L 796.092457 381.400966 
L 796.675135 358.112686 
L 797.840491 381.400966 
L 798.42317 338.705793 
L 799.005848 346.468552 
L 799.588526 369.756828 
L 800.171204 334.824414 
L 800.753882 377.519586 
L 801.33656 365.875448 
L 801.919238 389.163724 
L 802.501916 346.468552 
L 803.084595 389.163724 
L 803.667273 365.875448 
L 804.249951 365.875448 
L 804.832629 373.638207 
L 805.415307 377.519586 
L 805.997985 361.994069 
L 806.580663 396.926483 
L 807.163342 400.807862 
L 807.74602 381.400966 
L 808.328698 365.875448 
L 808.911376 396.926483 
L 809.494054 385.282343 
L 810.076732 393.045103 
L 810.65941 404.689241 
L 811.242088 381.400966 
L 811.824767 350.349931 
L 812.407445 385.282343 
L 812.990123 400.807862 
L 813.572801 400.807862 
L 814.155479 373.638207 
L 814.738157 381.400966 
L 815.320835 354.23131 
L 815.903514 373.638207 
L 816.486192 365.875448 
L 817.06887 400.807862 
L 817.651548 389.163724 
L 818.234226 373.638207 
L 818.816904 389.163724 
L 819.399582 373.638207 
L 819.98226 377.519586 
L 820.564939 365.875448 
L 821.147617 327.061655 
L 821.730295 381.400966 
L 822.312973 330.943034 
L 822.895651 354.23131 
L 823.478329 361.994069 
L 824.061007 389.163724 
L 824.643686 385.282343 
L 825.226364 389.163724 
L 825.809042 385.282343 
L 826.39172 373.638207 
L 826.974398 342.587172 
L 827.557076 377.519586 
L 828.139754 369.756828 
L 828.722432 393.045103 
L 829.305111 350.349931 
L 829.887789 381.400966 
L 830.470467 396.926483 
L 831.053145 385.282343 
L 831.635823 342.587172 
L 832.218501 358.112686 
L 832.801179 354.23131 
L 833.383857 299.891993 
L 833.966536 338.705793 
L 834.549214 350.349931 
L 835.131892 327.061655 
L 835.71457 377.519586 
L 836.297248 327.061655 
L 836.879926 327.061655 
L 837.462604 303.773372 
L 838.045283 342.587172 
L 838.627961 327.061655 
L 839.793317 358.112686 
L 840.375995 377.519586 
L 840.958673 327.061655 
L 841.541351 237.789931 
L 843.289386 373.638207 
L 843.872064 369.756828 
L 844.454742 377.519586 
L 845.03742 354.23131 
L 845.620098 361.994069 
L 846.202776 393.045103 
L 846.785455 404.689241 
L 846.785455 404.689241 
" style="fill:none;stroke:#1f77b4;stroke-linecap:square;stroke-width:1.5;"/>
   </g>
   <g id="line2d_14">
    <path clip-path="url(#p63c3b7ab7a)" d="M 157.477224 403.702275 
L 159.225258 403.702275 
L 159.807936 400.062896 
L 160.390614 403.702275 
L 161.555971 396.414309 
L 162.138649 370.765539 
L 162.721327 392.758302 
L 163.304005 381.763544 
L 163.886683 374.429029 
L 164.469361 378.095591 
L 165.052039 374.429029 
L 165.634717 389.096655 
L 166.217396 385.431148 
L 166.800074 389.096655 
L 167.382752 378.095591 
L 167.96543 392.758302 
L 168.548108 356.175576 
L 169.130786 392.758302 
L 169.713464 400.062896 
L 170.296143 400.062896 
L 170.878821 392.758302 
L 172.044177 385.431148 
L 172.626855 389.096655 
L 173.209533 403.702275 
L 173.792211 400.062896 
L 174.374889 403.702275 
L 174.957568 403.702275 
L 175.540246 396.414309 
L 176.122924 403.702275 
L 177.28828 403.702275 
L 177.870958 400.062896 
L 178.453636 403.702275 
L 179.036314 400.062896 
L 179.618993 389.096655 
L 180.784349 396.414309 
L 181.367027 403.702275 
L 181.949705 400.062896 
L 182.532383 381.763544 
L 183.115061 403.702275 
L 183.69774 392.758302 
L 184.280418 385.431148 
L 184.863096 374.429029 
L 185.445774 396.414309 
L 186.028452 396.414309 
L 186.61113 403.702275 
L 187.776486 403.702275 
L 188.359165 400.062896 
L 188.941843 403.702275 
L 190.689877 403.702275 
L 191.272555 378.095591 
L 191.855233 385.431148 
L 192.437912 396.414309 
L 193.02059 385.431148 
L 193.603268 396.414309 
L 194.185946 403.702275 
L 194.768624 396.414309 
L 195.351302 370.765539 
L 195.93398 381.763544 
L 196.516658 403.702275 
L 197.099337 400.062896 
L 197.682015 381.763544 
L 198.264693 392.758302 
L 198.847371 392.758302 
L 199.430049 381.763544 
L 200.012727 403.702275 
L 200.595405 403.702275 
L 201.178084 400.062896 
L 201.760762 400.062896 
L 202.34344 403.702275 
L 205.25683 403.702275 
L 205.839509 392.758302 
L 206.422187 403.702275 
L 207.004865 400.062896 
L 207.587543 403.702275 
L 208.170221 403.702275 
L 208.752899 396.414309 
L 209.335577 403.702275 
L 211.66629 403.702275 
L 212.248968 378.095591 
L 212.831646 359.810249 
L 213.414324 370.765539 
L 213.997002 392.758302 
L 214.579681 403.702275 
L 215.162359 396.414309 
L 215.745037 396.414309 
L 216.327715 374.429029 
L 216.910393 403.702275 
L 217.493071 392.758302 
L 218.075749 367.106828 
L 218.658428 396.414309 
L 219.241106 341.762921 
L 219.823784 359.810249 
L 220.406462 385.431148 
L 220.98914 389.096655 
L 221.571818 378.095591 
L 222.154496 403.702275 
L 223.319853 403.702275 
L 223.902531 400.062896 
L 224.485209 403.702275 
L 225.650565 403.702275 
L 226.233243 396.414309 
L 226.815921 400.062896 
L 227.3986 400.062896 
L 227.981278 403.702275 
L 228.563956 403.702275 
L 229.146634 396.414309 
L 229.729312 403.702275 
L 230.31199 389.096655 
L 230.894668 381.763544 
L 231.477346 389.096655 
L 232.060025 403.702275 
L 233.225381 403.702275 
L 233.808059 400.062896 
L 234.390737 400.062896 
L 234.973415 396.414309 
L 236.138771 403.702275 
L 236.72145 403.702275 
L 237.304128 400.062896 
L 237.886806 403.702275 
L 240.217518 403.702275 
L 240.800197 400.062896 
L 241.965553 400.062896 
L 242.548231 403.702275 
L 243.713587 403.702275 
L 244.296265 396.414309 
L 244.878943 392.758302 
L 245.461622 403.702275 
L 246.0443 392.758302 
L 246.626978 400.062896 
L 247.209656 403.702275 
L 249.540369 403.702275 
L 250.123047 385.431148 
L 250.705725 370.765539 
L 251.288403 392.758302 
L 251.871081 400.062896 
L 252.453759 400.062896 
L 253.036437 403.702275 
L 253.619115 400.062896 
L 254.201794 389.096655 
L 254.784472 392.758302 
L 255.949828 385.431148 
L 256.532506 392.758302 
L 257.115184 385.431148 
L 257.697862 400.062896 
L 258.280541 403.702275 
L 260.028575 403.702275 
L 260.611253 389.096655 
L 261.193931 403.702275 
L 261.776609 403.702275 
L 262.359287 367.106828 
L 262.941966 378.095591 
L 263.524644 392.758302 
L 264.107322 392.758302 
L 264.69 385.431148 
L 265.272678 367.106828 
L 265.855356 389.096655 
L 266.438034 400.062896 
L 267.020713 403.702275 
L 267.603391 389.096655 
L 268.186069 400.062896 
L 268.768747 396.414309 
L 269.934103 403.702275 
L 270.516781 403.702275 
L 271.099459 400.062896 
L 271.682138 403.702275 
L 272.264816 403.702275 
L 272.847494 400.062896 
L 273.430172 400.062896 
L 274.01285 403.702275 
L 274.595528 400.062896 
L 275.178206 392.758302 
L 275.760885 403.702275 
L 276.343563 403.702275 
L 277.508919 396.414309 
L 278.091597 396.414309 
L 278.674275 385.431148 
L 279.256953 396.414309 
L 279.839631 403.702275 
L 281.004988 403.702275 
L 281.587666 400.062896 
L 282.170344 400.062896 
L 282.753022 403.702275 
L 285.083735 403.702275 
L 285.666413 400.062896 
L 286.249091 403.702275 
L 288.579803 403.702275 
L 289.162482 396.414309 
L 289.74516 403.702275 
L 290.910516 403.702275 
L 291.493194 400.062896 
L 292.075872 403.702275 
L 294.989263 403.702275 
L 295.571941 400.062896 
L 296.154619 403.702275 
L 296.737297 400.062896 
L 297.319975 392.758302 
L 297.902654 400.062896 
L 298.485332 400.062896 
L 299.06801 403.702275 
L 299.650688 403.702275 
L 300.233366 396.414309 
L 300.816044 403.702275 
L 301.398722 396.414309 
L 302.564079 403.702275 
L 303.146757 400.062896 
L 303.729435 403.702275 
L 304.312113 400.062896 
L 304.894791 367.106828 
L 305.477469 385.431148 
L 306.060147 378.095591 
L 306.642826 400.062896 
L 307.225504 403.702275 
L 307.808182 392.758302 
L 308.39086 403.702275 
L 308.973538 400.062896 
L 309.556216 403.702275 
L 311.886929 403.702275 
L 312.469607 400.062896 
L 313.052285 403.702275 
L 313.634963 403.702275 
L 314.217641 392.758302 
L 314.800319 403.702275 
L 315.382998 400.062896 
L 315.965676 403.702275 
L 317.131032 403.702275 
L 317.71371 400.062896 
L 318.296388 400.062896 
L 318.879066 403.702275 
L 328.201916 403.702275 
L 328.784595 400.062896 
L 329.367273 403.702275 
L 334.611376 403.702275 
L 335.194054 400.062896 
L 335.776732 403.702275 
L 336.35941 403.702275 
L 336.942088 363.454517 
L 337.524767 341.762921 
L 338.107445 370.765539 
L 338.690123 352.552029 
L 339.272801 403.702275 
L 339.855479 378.095591 
L 340.438157 396.414309 
L 341.020835 389.096655 
L 342.186192 209.060078 
L 342.76887 209.060078 
L 343.351548 174.708574 
L 343.934226 220.675536 
L 344.516904 171.131449 
L 345.099582 235.628184 
L 346.264939 160.909737 
L 346.847617 180.243905 
L 347.430295 209.060078 
L 348.012973 194.005786 
L 348.595651 191.963747 
L 349.178329 200.291662 
L 349.761007 187.957314 
L 350.343686 233.056924 
L 350.926364 403.702275 
L 351.509042 189.947693 
L 352.09172 202.441535 
L 352.674398 263.135674 
L 353.257076 287.498012 
L 353.839754 263.135674 
L 354.422432 290.685858 
L 355.005111 233.056924 
L 355.587789 266.067496 
L 356.170467 254.53787 
L 356.753145 202.441535 
L 357.335823 215.939627 
L 357.918501 251.738001 
L 358.501179 251.738001 
L 359.083857 233.056924 
L 359.666536 281.215379 
L 360.249214 275.05928 
L 360.831892 266.067496 
L 361.41457 317.233049 
L 361.997248 284.34106 
L 362.579926 266.067496 
L 363.162604 233.056924 
L 363.745283 225.534101 
L 364.327961 272.029485 
L 364.910639 331.124863 
L 365.493317 313.819475 
L 366.075995 356.175576 
L 366.658673 331.124863 
L 367.241351 269.032174 
L 367.824029 297.152267 
L 368.406708 341.762921 
L 368.989386 363.454517 
L 369.572064 327.618342 
L 370.154742 266.067496 
L 370.73742 331.124863 
L 371.320098 348.941128 
L 371.902776 370.765539 
L 372.485455 348.941128 
L 373.068133 363.454517 
L 373.650811 348.941128 
L 374.233489 338.198359 
L 374.816167 300.429735 
L 375.398845 327.618342 
L 375.981523 348.941128 
L 376.564201 307.070073 
L 377.14688 313.819475 
L 377.729558 324.133482 
L 378.312236 327.618342 
L 378.894914 290.685858 
L 379.477592 324.133482 
L 380.06027 287.498012 
L 380.642948 260.236736 
L 381.225627 290.685858 
L 381.808305 297.152267 
L 382.390983 238.231647 
L 382.973661 238.231647 
L 383.556339 243.535955 
L 384.139017 278.121354 
L 384.721695 278.121354 
L 385.304373 341.762921 
L 385.887052 317.233049 
L 386.46973 307.070073 
L 387.052408 290.685858 
L 387.635086 338.198359 
L 388.217764 284.34106 
L 388.800442 254.53787 
L 389.38312 278.121354 
L 389.965799 243.535955 
L 390.548477 290.685858 
L 391.131155 348.941128 
L 391.713833 293.904123 
L 392.296511 348.941128 
L 392.879189 317.233049 
L 393.461867 348.941128 
L 394.044545 300.429735 
L 394.627224 293.904123 
L 395.209902 359.810249 
L 395.79258 345.344288 
L 396.375258 356.175576 
L 396.957936 307.070073 
L 397.540614 287.498012 
L 398.123292 324.133482 
L 398.705971 317.233049 
L 399.288649 303.73589 
L 399.871327 310.431537 
L 400.454005 374.429029 
L 401.036683 293.904123 
L 401.619361 331.124863 
L 402.202039 338.198359 
L 402.784717 356.175576 
L 403.367396 327.618342 
L 403.950074 281.215379 
L 404.532752 297.152267 
L 405.11543 300.429735 
L 405.698108 310.431537 
L 406.280786 248.971047 
L 406.863464 290.685858 
L 407.446143 263.135674 
L 408.028821 317.233049 
L 408.611499 331.124863 
L 409.194177 320.67138 
L 409.776855 352.552029 
L 410.942211 345.344288 
L 411.524889 381.763544 
L 412.107568 310.431537 
L 412.690246 352.552029 
L 413.855602 389.096655 
L 415.020958 352.552029 
L 415.603636 287.498012 
L 416.186314 266.067496 
L 416.768993 218.29239 
L 417.351671 263.135674 
L 417.934349 263.135674 
L 418.517027 341.762921 
L 419.099705 297.152267 
L 419.682383 278.121354 
L 420.265061 233.056924 
L 420.84774 307.070073 
L 421.430418 310.431537 
L 422.013096 317.233049 
L 422.595774 327.618342 
L 423.178452 300.429735 
L 423.76113 297.152267 
L 424.343808 338.198359 
L 424.926486 281.215379 
L 425.509165 334.651935 
L 426.091843 313.819475 
L 426.674521 307.070073 
L 427.257199 246.23711 
L 427.839877 363.454517 
L 428.422555 338.198359 
L 429.005233 331.124863 
L 429.587912 307.070073 
L 430.17059 359.810249 
L 430.753268 338.198359 
L 431.335946 345.344288 
L 432.501302 331.124863 
L 433.666658 396.414309 
L 434.249337 381.763544 
L 434.832015 378.095591 
L 435.414693 385.431148 
L 435.997371 370.765539 
L 436.580049 374.429029 
L 437.162727 338.198359 
L 437.745405 327.618342 
L 438.328084 374.429029 
L 438.910762 356.175576 
L 439.49344 345.344288 
L 440.076118 341.762921 
L 440.658796 356.175576 
L 441.241474 320.67138 
L 441.824152 317.233049 
L 442.40683 352.552029 
L 442.989509 320.67138 
L 443.572187 374.429029 
L 444.154865 381.763544 
L 444.737543 345.344288 
L 445.320221 348.941128 
L 445.902899 359.810249 
L 446.485577 324.133482 
L 447.068256 324.133482 
L 447.650934 363.454517 
L 448.233612 374.429029 
L 448.81629 363.454517 
L 449.398968 356.175576 
L 449.981646 331.124863 
L 450.564324 370.765539 
L 451.147002 374.429029 
L 451.729681 300.429735 
L 452.312359 345.344288 
L 452.895037 345.344288 
L 453.477715 334.651935 
L 454.060393 352.552029 
L 454.643071 297.152267 
L 455.225749 356.175576 
L 456.391106 303.73589 
L 456.973784 327.618342 
L 457.556462 297.152267 
L 458.13914 297.152267 
L 458.721818 251.738001 
L 459.304496 310.431537 
L 459.887174 310.431537 
L 461.052531 284.34106 
L 461.635209 266.067496 
L 462.217887 317.233049 
L 462.800565 275.05928 
L 463.383243 223.089316 
L 463.965921 263.135674 
L 464.5486 313.819475 
L 465.131278 246.23711 
L 465.713956 331.124863 
L 466.296634 260.236736 
L 466.879312 313.819475 
L 467.46199 348.941128 
L 468.044668 327.618342 
L 468.627346 341.762921 
L 469.210025 303.73589 
L 469.792703 381.763544 
L 470.375381 367.106828 
L 470.958059 374.429029 
L 471.540737 352.552029 
L 472.123415 341.762921 
L 472.706093 327.618342 
L 473.288771 381.763544 
L 473.87145 389.096655 
L 474.454128 400.062896 
L 475.036806 341.762921 
L 475.619484 348.941128 
L 476.202162 363.454517 
L 476.78484 389.096655 
L 477.950197 367.106828 
L 478.532875 348.941128 
L 479.115553 363.454517 
L 479.698231 284.34106 
L 480.280909 303.73589 
L 480.863587 359.810249 
L 481.446265 331.124863 
L 482.028943 272.029485 
L 482.611622 307.070073 
L 483.1943 310.431537 
L 483.776978 293.904123 
L 484.359656 320.67138 
L 484.942334 300.429735 
L 485.525012 338.198359 
L 486.10769 352.552029 
L 486.690369 356.175576 
L 487.273047 389.096655 
L 488.438403 327.618342 
L 489.021081 334.651935 
L 489.603759 356.175576 
L 490.186437 356.175576 
L 490.769115 317.233049 
L 491.351794 248.971047 
L 491.934472 300.429735 
L 492.51715 303.73589 
L 493.099828 235.628184 
L 493.682506 297.152267 
L 494.265184 320.67138 
L 494.847862 317.233049 
L 495.430541 403.702275 
L 496.595897 403.702275 
L 497.178575 400.062896 
L 497.761253 403.702275 
L 498.926609 403.702275 
L 500.091966 389.096655 
L 500.674644 400.062896 
L 501.257322 400.062896 
L 502.422678 392.758302 
L 503.588034 392.758302 
L 504.170713 396.414309 
L 505.336069 396.414309 
L 505.918747 317.233049 
L 506.501425 263.135674 
L 507.084103 266.067496 
L 507.666781 238.231647 
L 508.249459 374.429029 
L 508.832138 352.552029 
L 509.414816 367.106828 
L 509.997494 356.175576 
L 510.580172 348.941128 
L 511.16285 370.765539 
L 511.745528 367.106828 
L 512.328206 310.431537 
L 512.910885 293.904123 
L 513.493563 363.454517 
L 514.076241 378.095591 
L 514.658919 367.106828 
L 515.241597 352.552029 
L 515.824275 352.552029 
L 516.406953 385.431148 
L 516.989631 359.810249 
L 517.57231 363.454517 
L 518.737666 378.095591 
L 519.320344 396.414309 
L 519.903022 389.096655 
L 520.4857 378.095591 
L 521.068378 381.763544 
L 521.651057 403.702275 
L 522.233735 385.431148 
L 522.816413 381.763544 
L 523.981769 389.096655 
L 524.564447 400.062896 
L 525.147125 392.758302 
L 525.729803 359.810249 
L 526.312482 352.552029 
L 526.89516 356.175576 
L 527.477838 374.429029 
L 528.060516 381.763544 
L 528.643194 385.431148 
L 529.225872 359.810249 
L 529.80855 367.106828 
L 530.391229 370.765539 
L 530.973907 370.765539 
L 531.556585 374.429029 
L 532.139263 367.106828 
L 532.721941 385.431148 
L 533.304619 359.810249 
L 533.887297 356.175576 
L 534.469975 348.941128 
L 535.052654 352.552029 
L 535.635332 313.819475 
L 536.21801 374.429029 
L 536.800688 367.106828 
L 537.383366 396.414309 
L 537.966044 381.763544 
L 538.548722 389.096655 
L 539.1314 392.758302 
L 539.714079 403.702275 
L 540.296757 392.758302 
L 540.879435 400.062896 
L 541.462113 400.062896 
L 542.044791 389.096655 
L 542.627469 367.106828 
L 543.210147 338.198359 
L 543.792826 348.941128 
L 544.375504 356.175576 
L 544.958182 356.175576 
L 545.54086 400.062896 
L 546.123538 389.096655 
L 546.706216 396.414309 
L 547.288894 367.106828 
L 547.871572 374.429029 
L 548.454251 359.810249 
L 549.036929 374.429029 
L 549.619607 363.454517 
L 550.202285 363.454517 
L 550.784963 367.106828 
L 551.367641 378.095591 
L 551.950319 374.429029 
L 552.532998 378.095591 
L 553.698354 363.454517 
L 554.281032 378.095591 
L 554.86371 374.429029 
L 555.446388 363.454517 
L 556.029066 348.941128 
L 556.611744 370.765539 
L 557.194423 381.763544 
L 557.777101 356.175576 
L 558.359779 367.106828 
L 558.942457 389.096655 
L 559.525135 381.763544 
L 560.107813 400.062896 
L 560.690491 324.133482 
L 561.27317 290.685858 
L 561.855848 310.431537 
L 562.438526 254.53787 
L 563.021204 324.133482 
L 563.603882 345.344288 
L 564.18656 331.124863 
L 564.769238 334.651935 
L 565.351916 317.233049 
L 565.934595 320.67138 
L 566.517273 310.431537 
L 567.099951 297.152267 
L 567.682629 303.73589 
L 568.265307 331.124863 
L 568.847985 320.67138 
L 569.430663 290.685858 
L 570.59602 290.685858 
L 571.178698 243.535955 
L 571.761376 243.535955 
L 572.344054 345.344288 
L 572.926732 266.067496 
L 573.50941 287.498012 
L 574.092088 248.971047 
L 574.674767 290.685858 
L 575.257445 275.05928 
L 575.840123 313.819475 
L 576.422801 327.618342 
L 577.005479 293.904123 
L 577.588157 310.431537 
L 578.170835 313.819475 
L 578.753514 359.810249 
L 579.91887 345.344288 
L 580.501548 348.941128 
L 581.084226 374.429029 
L 582.249582 381.763544 
L 582.83226 378.095591 
L 583.414939 341.762921 
L 583.997617 374.429029 
L 584.580295 356.175576 
L 585.162973 352.552029 
L 585.745651 400.062896 
L 586.328329 363.454517 
L 586.911007 307.070073 
L 587.493686 352.552029 
L 588.076364 334.651935 
L 588.659042 303.73589 
L 589.24172 356.175576 
L 589.824398 367.106828 
L 590.407076 389.096655 
L 590.989754 352.552029 
L 591.572432 367.106828 
L 592.155111 374.429029 
L 592.737789 348.941128 
L 593.320467 345.344288 
L 593.903145 352.552029 
L 594.485823 352.552029 
L 595.068501 331.124863 
L 595.651179 331.124863 
L 596.233857 324.133482 
L 596.816536 324.133482 
L 597.399214 275.05928 
L 597.981892 320.67138 
L 598.56457 284.34106 
L 599.147248 327.618342 
L 599.729926 281.215379 
L 600.312604 303.73589 
L 600.895283 363.454517 
L 601.477961 284.34106 
L 602.060639 352.552029 
L 602.643317 356.175576 
L 603.225995 338.198359 
L 603.808673 345.344288 
L 604.391351 345.344288 
L 604.974029 334.651935 
L 605.556708 300.429735 
L 606.139386 233.056924 
L 606.722064 251.738001 
L 607.304742 281.215379 
L 607.88742 341.762921 
L 608.470098 310.431537 
L 609.052776 251.738001 
L 609.635455 293.904123 
L 610.800811 187.957314 
L 611.383489 240.867521 
L 611.966167 275.05928 
L 612.548845 260.236736 
L 613.131523 310.431537 
L 613.714201 272.029485 
L 614.29688 293.904123 
L 614.879558 327.618342 
L 615.462236 345.344288 
L 616.044914 313.819475 
L 616.627592 320.67138 
L 617.792948 352.552029 
L 617.792948 352.552029 
" style="fill:none;stroke:#ff7f0e;stroke-linecap:square;stroke-width:1.5;"/>
   </g>
   <g id="line2d_15">
    <path clip-path="url(#p63c3b7ab7a)" d="M 619.540983 363.454517 
L 620.123661 345.344288 
L 620.706339 300.429735 
L 621.289017 313.819475 
L 621.871695 334.651935 
L 622.454373 338.198359 
L 623.037052 287.498012 
L 623.61973 320.67138 
L 624.202408 307.070073 
L 624.785086 348.941128 
L 625.367764 307.070073 
L 625.950442 275.05928 
L 626.53312 338.198359 
L 627.115799 281.215379 
L 627.698477 275.05928 
L 628.281155 281.215379 
L 628.863833 290.685858 
L 629.446511 297.152267 
L 630.029189 320.67138 
L 630.611867 348.941128 
L 631.194545 297.152267 
L 631.777224 307.070073 
L 632.359902 293.904123 
L 632.94258 341.762921 
L 633.525258 297.152267 
L 634.107936 345.344288 
L 634.690614 313.819475 
L 635.273292 317.233049 
L 635.855971 290.685858 
L 636.438649 230.517645 
L 637.021327 287.498012 
L 637.604005 303.73589 
L 638.186683 348.941128 
L 638.769361 303.73589 
L 639.352039 287.498012 
L 639.934717 297.152267 
L 640.517396 269.032174 
L 641.100074 278.121354 
L 641.682752 275.05928 
L 642.26543 266.067496 
L 642.848108 235.628184 
L 643.430786 284.34106 
L 644.013464 287.498012 
L 644.596143 243.535955 
L 645.178821 272.029485 
L 645.761499 284.34106 
L 646.344177 284.34106 
L 646.926855 260.236736 
L 647.509533 215.939627 
L 648.092211 228.010127 
L 648.674889 281.215379 
L 649.257568 293.904123 
L 649.840246 290.685858 
L 650.422924 281.215379 
L 651.58828 307.070073 
L 652.170958 303.73589 
L 652.753636 307.070073 
L 653.918993 281.215379 
L 654.501671 300.429735 
L 655.084349 310.431537 
L 655.667027 331.124863 
L 656.249705 331.124863 
L 656.832383 352.552029 
L 657.415061 338.198359 
L 657.99774 352.552029 
L 658.580418 331.124863 
L 659.163096 313.819475 
L 659.745774 310.431537 
L 660.328452 297.152267 
L 660.91113 327.618342 
L 661.493808 307.070073 
L 662.076486 290.685858 
L 662.659165 327.618342 
L 663.241843 317.233049 
L 663.824521 324.133482 
L 664.407199 281.215379 
L 664.989877 324.133482 
L 665.572555 307.070073 
L 666.155233 367.106828 
L 667.32059 281.215379 
L 667.903268 254.53787 
L 668.485946 334.651935 
L 669.068624 331.124863 
L 669.651302 307.070073 
L 670.23398 303.73589 
L 670.816658 338.198359 
L 671.399337 327.618342 
L 671.982015 307.070073 
L 672.564693 345.344288 
L 673.147371 300.429735 
L 673.730049 348.941128 
L 674.312727 300.429735 
L 674.895405 293.904123 
L 675.478084 303.73589 
L 676.060762 290.685858 
L 676.64344 248.971047 
L 677.226118 281.215379 
L 677.808796 331.124863 
L 678.974152 317.233049 
L 679.55683 307.070073 
L 680.139509 341.762921 
L 680.722187 359.810249 
L 681.304865 338.198359 
L 682.470221 385.431148 
L 683.052899 385.431148 
L 683.635577 352.552029 
L 684.218256 392.758302 
L 684.800934 370.765539 
L 685.383612 392.758302 
L 685.96629 396.414309 
L 686.548968 356.175576 
L 687.131646 385.431148 
L 687.714324 359.810249 
L 688.297002 389.096655 
L 688.879681 374.429029 
L 689.462359 370.765539 
L 690.045037 385.431148 
L 690.627715 378.095591 
L 691.210393 363.454517 
L 691.793071 381.763544 
L 692.375749 385.431148 
L 692.958428 396.414309 
L 693.541106 396.414309 
L 694.123784 381.763544 
L 694.706462 385.431148 
L 695.28914 396.414309 
L 695.871818 403.702275 
L 696.454496 400.062896 
L 697.037174 403.702275 
L 697.619853 359.810249 
L 698.202531 363.454517 
L 698.785209 356.175576 
L 699.950565 396.414309 
L 700.533243 396.414309 
L 701.115921 356.175576 
L 701.6986 378.095591 
L 702.281278 370.765539 
L 702.863956 389.096655 
L 703.446634 374.429029 
L 704.029312 378.095591 
L 704.61199 356.175576 
L 705.194668 363.454517 
L 706.942703 300.429735 
L 707.525381 324.133482 
L 708.108059 334.651935 
L 708.690737 381.763544 
L 709.273415 378.095591 
L 709.856093 359.810249 
L 710.438771 348.941128 
L 711.02145 348.941128 
L 711.604128 396.414309 
L 712.186806 378.095591 
L 712.769484 378.095591 
L 713.352162 385.431148 
L 713.93484 381.763544 
L 714.517518 385.431148 
L 715.100197 396.414309 
L 715.682875 403.702275 
L 716.265553 389.096655 
L 716.848231 381.763544 
L 717.430909 359.810249 
L 718.596265 403.702275 
L 719.178943 400.062896 
L 719.761622 381.763544 
L 720.3443 381.763544 
L 720.926978 367.106828 
L 721.509656 392.758302 
L 722.092334 385.431148 
L 722.675012 381.763544 
L 723.25769 385.431148 
L 723.840369 400.062896 
L 724.423047 396.414309 
L 725.005725 389.096655 
L 725.588403 385.431148 
L 726.171081 370.765539 
L 726.753759 303.73589 
L 727.336437 352.552029 
L 727.919115 381.763544 
L 728.501794 300.429735 
L 729.084472 287.498012 
L 729.66715 281.215379 
L 730.249828 331.124863 
L 730.832506 348.941128 
L 731.415184 338.198359 
L 731.997862 324.133482 
L 732.580541 284.34106 
L 733.163219 293.904123 
L 733.745897 320.67138 
L 734.328575 363.454517 
L 734.911253 348.941128 
L 735.493931 243.535955 
L 736.076609 287.498012 
L 736.659287 278.121354 
L 737.241966 300.429735 
L 737.824644 313.819475 
L 738.407322 352.552029 
L 738.99 334.651935 
L 739.572678 367.106828 
L 740.155356 374.429029 
L 740.738034 345.344288 
L 741.903391 367.106828 
L 742.486069 367.106828 
L 743.068747 338.198359 
L 743.651425 345.344288 
L 744.234103 327.618342 
L 744.816781 345.344288 
L 745.399459 341.762921 
L 745.982138 370.765539 
L 746.564816 359.810249 
L 747.147494 392.758302 
L 747.730172 374.429029 
L 748.31285 341.762921 
L 748.895528 374.429029 
L 749.478206 324.133482 
L 750.060885 334.651935 
L 750.643563 307.070073 
L 751.226241 327.618342 
L 751.808919 327.618342 
L 752.391597 307.070073 
L 752.974275 345.344288 
L 753.556953 313.819475 
L 754.72231 359.810249 
L 755.304988 313.819475 
L 755.887666 327.618342 
L 756.470344 320.67138 
L 757.053022 352.552029 
L 757.6357 331.124863 
L 758.218378 363.454517 
L 759.383735 327.618342 
L 760.549091 359.810249 
L 761.131769 341.762921 
L 761.714447 338.198359 
L 762.297125 348.941128 
L 762.879803 356.175576 
L 763.462482 385.431148 
L 764.04516 370.765539 
L 764.627838 338.198359 
L 765.210516 327.618342 
L 765.793194 370.765539 
L 766.375872 341.762921 
L 766.95855 359.810249 
L 767.541229 331.124863 
L 768.706585 381.763544 
L 769.289263 324.133482 
L 769.871941 327.618342 
L 770.454619 370.765539 
L 771.037297 370.765539 
L 771.619975 389.096655 
L 772.785332 389.096655 
L 773.36801 370.765539 
L 773.950688 356.175576 
L 774.533366 313.819475 
L 775.116044 290.685858 
L 775.698722 284.34106 
L 776.2814 341.762921 
L 776.864079 378.095591 
L 777.446757 374.429029 
L 778.029435 293.904123 
L 778.612113 327.618342 
L 779.194791 307.070073 
L 779.777469 341.762921 
L 780.360147 348.941128 
L 780.942826 320.67138 
L 781.525504 310.431537 
L 782.108182 317.233049 
L 782.69086 307.070073 
L 783.273538 313.819475 
L 783.856216 278.121354 
L 784.438894 345.344288 
L 785.021572 331.124863 
L 785.604251 367.106828 
L 786.186929 317.233049 
L 786.769607 331.124863 
L 787.352285 348.941128 
L 787.934963 300.429735 
L 788.517641 341.762921 
L 789.682998 320.67138 
L 790.265676 381.763544 
L 790.848354 334.651935 
L 791.431032 367.106828 
L 792.01371 367.106828 
L 792.596388 345.344288 
L 793.179066 293.904123 
L 793.761744 348.941128 
L 794.344423 345.344288 
L 794.927101 356.175576 
L 795.509779 310.431537 
L 796.092457 356.175576 
L 796.675135 374.429029 
L 797.257813 352.552029 
L 798.42317 374.429029 
L 799.005848 334.651935 
L 799.588526 341.762921 
L 800.171204 363.454517 
L 800.753882 331.124863 
L 801.33656 370.765539 
L 801.919238 359.810249 
L 802.501916 381.763544 
L 803.084595 341.762921 
L 803.667273 381.763544 
L 804.249951 359.810249 
L 804.832629 359.810249 
L 805.415307 367.106828 
L 805.997985 370.765539 
L 806.580663 356.175576 
L 807.163342 389.096655 
L 807.74602 392.758302 
L 808.328698 374.429029 
L 808.911376 359.810249 
L 809.494054 389.096655 
L 810.076732 378.095591 
L 810.65941 385.431148 
L 811.242088 396.414309 
L 811.824767 374.429029 
L 812.407445 345.344288 
L 812.990123 378.095591 
L 813.572801 392.758302 
L 814.155479 392.758302 
L 814.738157 367.106828 
L 815.320835 374.429029 
L 815.903514 348.941128 
L 816.486192 367.106828 
L 817.06887 359.810249 
L 817.651548 392.758302 
L 818.234226 381.763544 
L 818.816904 367.106828 
L 819.399582 381.763544 
L 819.98226 367.106828 
L 820.564939 370.765539 
L 821.147617 359.810249 
L 821.730295 324.133482 
L 822.312973 374.429029 
L 822.895651 327.618342 
L 823.478329 348.941128 
L 824.061007 356.175576 
L 824.643686 381.763544 
L 825.226364 378.095591 
L 825.809042 381.763544 
L 826.39172 378.095591 
L 826.974398 367.106828 
L 827.557076 338.198359 
L 828.139754 370.765539 
L 828.722432 363.454517 
L 829.305111 385.431148 
L 829.887789 345.344288 
L 830.470467 374.429029 
L 831.053145 389.096655 
L 831.635823 378.095591 
L 832.218501 338.198359 
L 832.801179 352.552029 
L 833.383857 348.941128 
L 833.966536 300.429735 
L 834.549214 334.651935 
L 835.131892 345.344288 
L 835.71457 324.133482 
L 836.297248 370.765539 
L 836.879926 324.133482 
L 837.462604 324.133482 
L 838.045283 303.73589 
L 838.627961 338.198359 
L 839.210639 324.133482 
L 840.375995 352.552029 
L 840.958673 370.765539 
L 841.541351 324.133482 
L 842.124029 251.738001 
L 842.706708 284.34106 
L 843.872064 367.106828 
L 844.454742 363.454517 
L 845.03742 370.765539 
L 845.620098 348.941128 
L 846.202776 356.175576 
L 846.202776 356.175576 
" style="fill:none;stroke:#2ca02c;stroke-linecap:square;stroke-width:1.5;"/>
   </g>
   <g id="patch_3">
    <path d="M 122.4 429.336 
L 122.4 57.888 
" style="fill:none;stroke:#000000;stroke-linecap:square;stroke-linejoin:miter;stroke-width:0.8;"/>
   </g>
   <g id="patch_4">
    <path d="M 881.28 429.336 
L 881.28 57.888 
" style="fill:none;stroke:#000000;stroke-linecap:square;stroke-linejoin:miter;stroke-width:0.8;"/>
   </g>
   <g id="patch_5">
    <path d="M 122.4 429.336 
L 881.28 429.336 
" style="fill:none;stroke:#000000;stroke-linecap:square;stroke-linejoin:miter;stroke-width:0.8;"/>
   </g>
   <g id="patch_6">
    <path d="M 122.4 57.888 
L 881.28 57.888 
" style="fill:none;stroke:#000000;stroke-linecap:square;stroke-linejoin:miter;stroke-width:0.8;"/>
   </g>
  </g>
 </g>
 <defs>
  <clipPath id="p63c3b7ab7a">
   <rect height="371.448" width="758.88" x="122.4" y="57.888"/>
  </clipPath>
 </defs>
</svg>
